<?xml version="1.0" standalone="no"?>
<!DOCTYPE svg PUBLIC "-//W3C//DTD SVG 20010904//EN"
 "http://www.w3.org/TR/2001/REC-SVG-20010904/DTD/svg10.dtd">
<svg version="1.0" xmlns="http://www.w3.org/2000/svg"
 width="200.000000pt" height="231.000000pt" viewBox="0 0 200.000000 231.000000"
 preserveAspectRatio="xMidYMid meet">
<metadata>
Created by potrace 1.15, written by Peter Selinger 2001-2017
</metadata>
<g transform="translate(0.000000,231.000000) scale(0.100000,-0.100000)"
fill="#000000" stroke="none">
<path d="M502 1993 l-482 -276 2 -555 3 -556 480 -273 c264 -150 487 -272 495
-273 8 0 231 123 495 273 l480 272 0 558 0 559 -484 274 c-266 151 -489 274
-495 273 -6 -1 -228 -125 -494 -276z m976 -51 l452 -256 0 -522 0 -522 -37
-22 c-167 -98 -884 -500 -893 -500 -9 0 -827 460 -909 512 -21 13 -21 17 -21
533 l0 520 463 262 c269 154 468 261 477 257 8 -3 219 -121 468 -262z"/>
<path d="M800 2003 c-206 -117 -196 -111 -187 -119 3 -3 78 35 167 86 89 51
163 91 165 89 2 -2 -26 -40 -61 -84 -35 -44 -64 -83 -64 -87 0 -21 21 0 90 88
l75 95 3 -95 c1 -53 7 -96 12 -96 5 0 11 44 12 97 l3 97 78 -97 c43 -53 83
-97 89 -97 12 0 15 -4 -71 103 -34 42 -59 77 -54 77 4 0 82 -42 173 -94 91
-52 167 -92 170 -89 3 2 -4 11 -15 19 -43 31 -373 214 -386 214 -8 -1 -97 -48
-199 -107z"/>
<path d="M339 1398 c0 -35 -2 -162 -5 -283 -4 -185 -2 -223 10 -239 13 -16 18
-17 31 -6 13 11 15 45 15 236 -1 198 -3 225 -18 236 -21 16 -28 74 -11 94 9
11 15 12 25 3 18 -15 18 -66 0 -76 -12 -7 -12 -10 0 -20 19 -18 29 2 25 51 -3
42 14 63 36 44 22 -18 15 -65 -12 -86 l-25 -20 0 -223 c0 -123 4 -230 9 -238
8 -12 12 -13 26 -1 13 11 15 42 15 234 -1 138 -5 225 -12 233 -7 9 -7 13 1 13
6 0 11 -5 11 -11 0 -8 5 -7 15 1 11 9 13 15 5 20 -17 11 -8 85 10 85 22 0 27
-93 6 -101 -14 -5 -16 -37 -16 -234 0 -180 3 -230 14 -239 31 -26 37 11 36
238 -1 125 -5 223 -11 226 -5 4 -6 14 -1 23 4 9 7 26 6 37 -4 71 5 65 -95 65
l-90 0 0 -62z"/>
<path d="M1441 1402 c1 -32 0 -63 -3 -68 -3 -5 -6 -108 -7 -230 -2 -187 0
-222 13 -233 13 -11 18 -10 31 3 14 14 16 46 14 228 -1 124 -6 221 -12 233 -9
18 -8 18 5 7 22 -18 31 -2 32 57 1 34 5 46 16 46 10 0 16 -12 18 -38 3 -30 -2
-43 -21 -61 -24 -22 -24 -24 -26 -243 -2 -188 0 -221 13 -233 13 -10 19 -10
31 0 14 11 16 46 14 234 0 134 -5 226 -11 234 -7 8 -7 12 1 12 6 0 11 -5 11
-11 0 -8 6 -7 17 2 15 13 15 12 6 -6 -6 -12 -11 -107 -12 -230 -1 -171 2 -213
14 -229 12 -16 17 -17 30 -6 14 11 16 44 14 234 0 122 -4 225 -7 230 -3 5 -4
36 -3 68 l2 58 -91 0 -91 0 2 -58z"/>
<path d="M272 1333 c-5 -10 -10 -112 -11 -226 -2 -184 0 -211 14 -228 15 -16
19 -16 31 -4 12 11 14 56 14 232 -1 206 -6 243 -31 243 -5 0 -12 -8 -17 -17z"/>
<path d="M557 1343 c-4 -3 -7 -109 -7 -233 0 -177 3 -230 13 -239 32 -26 37 8
37 234 0 159 -3 224 -12 233 -14 14 -22 15 -31 5z"/>
<path d="M1372 1338 c-6 -8 -10 -97 -11 -228 -1 -176 2 -218 14 -234 15 -20
15 -20 30 0 13 16 15 56 14 229 -1 116 -6 218 -11 228 -10 20 -22 22 -36 5z"/>
<path d="M1651 1333 c-5 -10 -9 -112 -10 -227 -1 -179 2 -212 15 -227 14 -16
18 -16 30 -4 12 11 14 56 14 232 -1 206 -6 243 -31 243 -5 0 -12 -8 -18 -17z"/>
<path d="M760 1221 c0 -79 3 -100 15 -105 9 -3 15 0 15 9 0 8 7 15 15 15 8 0
15 -7 15 -16 0 -8 5 -12 10 -9 6 3 10 24 10 45 0 41 14 53 43 38 25 -13 22
-48 -4 -48 -18 0 -20 5 -16 26 3 16 1 22 -5 16 -5 -5 -8 -25 -6 -43 3 -32 5
-34 41 -35 l37 -1 0 43 c0 50 6 56 46 45 19 -5 30 -15 32 -30 3 -19 0 -22 -25
-19 -22 2 -28 8 -26 26 2 12 -2 22 -7 22 -6 0 -10 -20 -10 -44 l0 -45 85 1 85
2 0 37 c0 21 -4 40 -9 43 -4 3 -6 -6 -3 -19 3 -20 0 -25 -17 -25 -14 0 -21 6
-21 20 0 20 34 45 49 35 5 -3 12 5 14 17 2 13 5 -8 7 -47 1 -38 4 -62 7 -52 5
18 33 24 33 7 0 -5 9 -10 20 -10 11 0 20 -7 20 -15 0 -10 -7 -15 -17 -13 -13
2 -19 -5 -21 -24 -5 -39 -30 -35 -35 5 -2 17 -5 -68 -5 -190 l-2 -222 95 0
c78 0 95 3 95 15 0 9 7 22 15 30 8 9 15 26 15 40 0 14 -7 27 -15 30 -8 4 -15
16 -15 29 0 35 -25 50 -58 36 -26 -11 -26 -10 -7 4 11 9 27 14 35 12 8 -3 21
-6 29 -8 7 -2 16 2 18 9 3 9 -13 12 -61 12 -37 0 -66 4 -66 10 0 6 30 10 70
10 70 0 70 0 70 28 l0 27 -70 -1 c-38 -1 -70 2 -70 7 0 5 6 9 13 9 8 0 11 16
9 53 -4 60 12 87 52 87 35 0 46 -20 46 -82 0 -32 4 -58 10 -58 6 0 10 57 10
150 l0 150 -69 0 c-69 0 -70 0 -73 28 l-3 27 -222 2 -223 2 0 -98z"/>
<path d="M610 1110 l0 -150 49 0 c55 0 61 7 61 70 0 45 -19 65 -57 56 -24 -5
-25 -4 -10 5 27 16 66 3 73 -26 3 -14 4 -43 2 -65 -2 -28 0 -40 9 -40 10 0 13
35 13 150 l0 150 -70 0 -70 0 0 -150z"/>
<path d="M773 1093 c-10 -4 -13 -56 -13 -217 l0 -213 50 0 50 -1 0 162 c0 156
1 163 23 184 12 11 38 28 58 36 43 18 95 6 135 -30 24 -23 24 -26 24 -189 0
-103 4 -165 10 -165 6 0 10 80 10 220 l0 221 -150 -2 -150 -1 0 -29 c0 -39
-28 -39 -32 -1 -2 18 -8 27 -15 25z"/>
<path d="M950 929 c-56 -23 -60 -33 -60 -156 l0 -114 93 3 92 3 3 98 c4 112
-7 139 -63 163 -19 8 -36 14 -37 13 -2 0 -14 -5 -28 -10z"/>
<path d="M270 756 c-6 -6 -10 -17 -10 -25 0 -9 -7 -25 -15 -35 -8 -11 -15 -23
-15 -28 0 -4 92 -8 205 -8 l205 0 -20 37 c-11 21 -20 43 -20 50 0 16 9 15
-173 17 -82 0 -152 -3 -157 -8z"/>
<path d="M1370 762 c-6 -2 -10 -13 -10 -25 0 -12 -7 -31 -15 -41 -8 -11 -15
-23 -15 -28 0 -4 90 -8 200 -8 167 0 200 2 200 14 0 8 -4 17 -9 21 -5 3 -12
19 -16 35 -4 17 -10 30 -13 31 -22 3 -314 3 -322 1z"/>
<path d="M600 453 c0 -5 91 -59 201 -121 l200 -114 182 103 c214 121 221 125
210 132 -5 3 -56 -21 -113 -54 -185 -107 -235 -133 -224 -119 6 8 38 50 72 92
34 42 62 79 62 82 0 20 -26 -5 -91 -89 -41 -51 -77 -94 -81 -95 -5 0 -8 43 -8
95 0 125 -18 124 -22 -2 l-3 -97 -78 97 c-43 53 -80 97 -82 97 -15 0 2 -28 61
-101 36 -44 64 -82 62 -84 -2 -2 -77 39 -168 91 -164 93 -180 101 -180 87z"/>
</g>
</svg>
